<?xml version="1.0" encoding="UTF-8"?>
<svg version="1.1" xmlns="http://www.w3.org/2000/svg" width="413" height="81">
<path d="M0 0 C7.59098099 4.64255275 11.40478208 11.08186109 13.5625 19.5 C13.954375 20.716875 14.34625 21.93375 14.75 23.1875 C15.55588579 26.47303437 15.87550633 29.13518192 15.5625 32.5 C14.9025 33.16 14.2425 33.82 13.5625 34.5 C10.5925 34.5 7.6225 34.5 4.5625 34.5 C4.5625 40.77 4.5625 47.04 4.5625 53.5 C5.2225 53.5 5.8825 53.5 6.5625 53.5 C6.5625 52.51 6.5625 51.52 6.5625 50.5 C8.2125 50.5 9.8625 50.5 11.5625 50.5 C10.8125 56.25 10.8125 56.25 8.5625 58.5 C3.32963832 59.05668741 3.32963832 59.05668741 0.8894043 57.28588867 C-0.85801096 54.9340317 -0.78337067 53.52288705 -0.73046875 50.61328125 C-0.7159668 49.2065918 -0.7159668 49.2065918 -0.70117188 47.77148438 C-0.67603516 46.79501953 -0.65089844 45.81855469 -0.625 44.8125 C-0.60469727 43.33040039 -0.60469727 43.33040039 -0.58398438 41.81835938 C-0.54862203 39.37835769 -0.49927033 36.93945281 -0.4375 34.5 C-1.7575 34.5 -3.0775 34.5 -4.4375 34.5 C-4.4375 44.07 -4.4375 53.64 -4.4375 63.5 C-3.7775 63.5 -3.1175 63.5 -2.4375 63.5 C-2.4375 62.51 -2.4375 61.52 -2.4375 60.5 C-0.7875 60.5 0.8625 60.5 2.5625 60.5 C2.78473194 63.24086056 2.91031139 64.93963721 1.4375 67.3125 C-1.30905972 69.05198782 -3.25596974 68.89769128 -6.4375 68.5 C-8.10668945 67.41870117 -8.10668945 67.41870117 -9.4375 65.5 C-9.77807617 62.3137207 -9.77807617 62.3137207 -9.73046875 58.42578125 C-9.72622391 57.7419487 -9.72197906 57.05811615 -9.71760559 56.3535614 C-9.70083353 54.17280439 -9.66318657 51.99297691 -9.625 49.8125 C-9.60995114 48.33269565 -9.59626308 46.8528768 -9.58398438 45.37304688 C-9.55093569 41.74839664 -9.49916446 38.12428906 -9.4375 34.5 C-10.7575 34.5 -12.0775 34.5 -13.4375 34.5 C-13.42178955 35.42337158 -13.4060791 36.34674316 -13.38989258 37.2980957 C-13.33875168 40.72539889 -13.30114465 44.15229642 -13.27270508 47.57983398 C-13.25762232 49.06297199 -13.23715311 50.54606544 -13.21118164 52.02905273 C-13.17477384 54.16140745 -13.15776927 56.29317235 -13.14453125 58.42578125 C-13.1288208 59.70880127 -13.11311035 60.99182129 -13.09692383 62.3137207 C-13.4375 65.5 -13.4375 65.5 -14.76831055 67.41870117 C-17.38559822 69.11417684 -19.40542132 68.87900983 -22.4375 68.5 C-24.3125 67.3125 -24.3125 67.3125 -25.4375 65.5 C-25.625 62.8125 -25.625 62.8125 -25.4375 60.5 C-23.7875 60.5 -22.1375 60.5 -20.4375 60.5 C-20.4375 61.49 -20.4375 62.48 -20.4375 63.5 C-19.7775 63.5 -19.1175 63.5 -18.4375 63.5 C-18.4375 53.93 -18.4375 44.36 -18.4375 34.5 C-19.7575 34.5 -21.0775 34.5 -22.4375 34.5 C-22.42178955 35.12044189 -22.4060791 35.74088379 -22.38989258 36.38012695 C-22.32753786 39.19082528 -22.28850852 42.00137812 -22.25 44.8125 C-22.22486328 45.78896484 -22.19972656 46.76542969 -22.17382812 47.77148438 C-22.16416016 48.70927734 -22.15449219 49.64707031 -22.14453125 50.61328125 C-22.1288208 51.47735596 -22.11311035 52.34143066 -22.09692383 53.23168945 C-22.4375 55.5 -22.4375 55.5 -23.76831055 57.27807617 C-26.38031078 59.19018107 -28.30616294 58.95665332 -31.4375 58.5 C-33.3125 56.75 -33.3125 56.75 -34.4375 54.5 C-34.4375 53.18 -34.4375 51.86 -34.4375 50.5 C-32.7875 50.5 -31.1375 50.5 -29.4375 50.5 C-29.4375 51.49 -29.4375 52.48 -29.4375 53.5 C-28.7775 53.5 -28.1175 53.5 -27.4375 53.5 C-27.4375 47.23 -27.4375 40.96 -27.4375 34.5 C-30.4075 34.5 -33.3775 34.5 -36.4375 34.5 C-38.4375 32.5 -38.4375 32.5 -38.6875 29.8125 C-38.41060578 26.14365162 -37.58149331 22.96504333 -36.4375 19.5 C-36.08751953 18.20835938 -36.08751953 18.20835938 -35.73046875 16.890625 C-33.46260025 9.39319673 -29.9505649 4.88231517 -23.4375 0.5 C-16.6627812 -2.92100866 -6.95940093 -3.08396982 0 0 Z " fill="#E65B39" transform="translate(44.4375,5.5)"/>
<path d="M0 0 C5.1381724 3.1050031 8.92198398 7.78958224 12 12.875 C12.88264301 16.99400073 12.5625 21.28749176 12.5625 25.5 C-3.2775 25.5 -19.1175 25.5 -35.4375 25.5 C-35.4375 11.73382046 -35.4375 11.73382046 -29.56640625 5.51953125 C-21.49464749 -1.88085249 -10.4932528 -4.64995124 0 0 Z " fill="#F97F56" transform="translate(44.4375,5.5)"/>
<path d="M0 0 C0.33 0 0.66 0 1 0 C1 1.98 1 3.96 1 6 C8.92 6 16.84 6 25 6 C25 8.97 25 11.94 25 15 C24.34 15 23.68 15 23 15 C23.01571045 15.92337158 23.0314209 16.84674316 23.04760742 17.7980957 C23.09874832 21.22539889 23.13635535 24.65229642 23.16479492 28.07983398 C23.17987768 29.56297199 23.20034689 31.04606544 23.22631836 32.52905273 C23.26272616 34.66140745 23.27973073 36.79317235 23.29296875 38.92578125 C23.3086792 40.20880127 23.32438965 41.49182129 23.34057617 42.8137207 C23 46 23 46 21.66918945 47.91870117 C19.05190178 49.61417684 17.03207868 49.37900983 14 49 C12.125 47.8125 12.125 47.8125 11 46 C10.8125 43.3125 10.8125 43.3125 11 41 C12.65 41 14.3 41 16 41 C16 41.99 16 42.98 16 44 C16.66 44 17.32 44 18 44 C18 34.43 18 24.86 18 15 C16.68 15 15.36 15 14 15 C14.01571045 15.62044189 14.0314209 16.24088379 14.04760742 16.88012695 C14.10996214 19.69082528 14.14899148 22.50137812 14.1875 25.3125 C14.21263672 26.28896484 14.23777344 27.26542969 14.26367188 28.27148438 C14.27333984 29.20927734 14.28300781 30.14707031 14.29296875 31.11328125 C14.3086792 31.97735596 14.32438965 32.84143066 14.34057617 33.73168945 C14 36 14 36 12.66918945 37.77807617 C10.05718922 39.69018107 8.13133706 39.45665332 5 39 C3.125 37.25 3.125 37.25 2 35 C2 33.68 2 32.36 2 31 C3.65 31 5.3 31 7 31 C7 31.99 7 32.98 7 34 C7.66 34 8.32 34 9 34 C9 27.73 9 21.46 9 15 C6.03 15 3.06 15 0 15 C-2 13 -2 13 -2.25 10.3125 C-1.96858029 6.58368883 -1.13712906 3.55352833 0 0 Z " fill="#F46C45" transform="translate(8,25)"/>
<path d="M0 0 C0 8.91 0 17.82 0 27 C-7.92 27 -15.84 27 -24 27 C-24 13.23382046 -24 13.23382046 -18.12890625 7.01953125 C-11.95977791 1.36352511 -8.61579532 0 0 0 Z " fill="#F88F67" transform="translate(33,4)"/>
<path d="M0 0 C4.1746088 1.0436522 4.51796118 1.15044501 6.796875 4.37890625 C7.28027344 5.05244141 7.76367188 5.72597656 8.26171875 6.41992188 C8.75285156 7.12697266 9.24398437 7.83402344 9.75 8.5625 C10.25660156 9.27341797 10.76320312 9.98433594 11.28515625 10.71679688 C12.53312303 12.47101432 13.76785497 14.23463359 15 16 C15.33 10.72 15.66 5.44 16 0 C17.65 0 19.3 0 21 0 C21 9.9 21 19.8 21 30 C16.72674814 28.93168704 16.44629508 28.79380327 14.203125 25.40234375 C13.71972656 24.68369141 13.23632812 23.96503906 12.73828125 23.22460938 C12.00158203 22.09249023 12.00158203 22.09249023 11.25 20.9375 C10.74339844 20.17888672 10.23679688 19.42027344 9.71484375 18.63867188 C8.46632758 16.76589761 7.2318031 14.88380922 6 13 C5.67 18.28 5.34 23.56 5 29 C3.35 29 1.7 29 0 29 C0 19.43 0 9.86 0 0 Z " fill="#FFFFFF" transform="translate(230,21)"/>
<path d="M0 0 C6.27 0 12.54 0 19 0 C19 1.32 19 2.64 19 4 C14.71 4 10.42 4 6 4 C6 6.31 6 8.62 6 11 C8.97 11 11.94 11 15 11 C15 12.65 15 14.3 15 16 C12.03 16 9.06 16 6 16 C6 18.97 6 21.94 6 25 C10.29 25 14.58 25 19 25 C19 26.32 19 27.64 19 29 C12.73 29 6.46 29 0 29 C0 19.43 0 9.86 0 0 Z " fill="#FFFFFF" transform="translate(97,21)"/>
<path d="M0 0 C1.32 0 2.64 0 4 0 C5.42830852 3.80704999 6.85236055 7.61566157 8.27246094 11.42578125 C8.75631411 12.72211806 9.24133485 14.0180197 9.72753906 15.31347656 C10.42558589 17.17398505 11.11910947 19.03618865 11.8125 20.8984375 C12.44091797 22.57945557 12.44091797 22.57945557 13.08203125 24.29443359 C14 27 14 27 14 29 C12.02 29 10.04 29 8 29 C7.34 27.35 6.68 25.7 6 24 C3.03 23.67 0.06 23.34 -3 23 C-3.33 24.98 -3.66 26.96 -4 29 C-6.31 29 -8.62 29 -11 29 C-7.38181668 19.3142103 -3.73162376 9.64277997 0 0 Z M1 12 C-0.25664978 14.90600261 -1 16.79604584 -1 20 C0.98 20 2.96 20 5 20 C4.34 17.36 3.68 14.72 3 12 C2.34 12 1.68 12 1 12 Z " fill="#FFFFFF" transform="translate(212,21)"/>
<path d="M0 0 C0.99 0 1.98 0 3 0 C4.67482275 4.26767998 6.33845499 8.53963493 8 12.8125 C8.47695313 14.02744141 8.95390625 15.24238281 9.4453125 16.49414062 C9.89648438 17.65751953 10.34765625 18.82089844 10.8125 20.01953125 C11.23144531 21.09307861 11.65039062 22.16662598 12.08203125 23.27270508 C13 26 13 26 13 29 C11.02 29 9.04 29 7 29 C6.67 27.02 6.34 25.04 6 23 C2.7 23 -0.6 23 -4 23 C-4.33 24.98 -4.66 26.96 -5 29 C-7.31 29 -9.62 29 -12 29 C-10.38101542 24.72686192 -8.75379169 20.45690852 -7.125 16.1875 C-6.66480469 14.97255859 -6.20460938 13.75761719 -5.73046875 12.50585938 C-5.06337891 10.76079102 -5.06337891 10.76079102 -4.3828125 8.98046875 C-3.97434082 7.90692139 -3.56586914 6.83337402 -3.14501953 5.72729492 C-2 3 -2 3 0 0 Z M0 12 C-0.66 14.64 -1.32 17.28 -2 20 C-0.02 20 1.96 20 4 20 C3.34 17.36 2.68 14.72 2 12 C1.34 12 0.68 12 0 12 Z " fill="#FFFFFF" transform="translate(266,21)"/>
<path d="M0 0 C0.33 1.32 0.66 2.64 1 4 C-2.07322544 4.91058531 -4.80097361 5.08886184 -8 5 C-8.33 5.99 -8.66 6.98 -9 8 C-7.05517548 10.28802885 -5.0704871 11.52559411 -2.4375 12.875 C0.05460464 14.26594213 0.93225155 14.89273162 2.5 17.375 C3.11555497 20.60666357 2.89403459 22.83649298 2 26 C0.08268479 28.52737004 -0.91505409 28.9716847 -4 30 C-5.9375 30.16796875 -5.9375 30.16796875 -8 30.1875 C-8.680625 30.20167969 -9.36125 30.21585938 -10.0625 30.23046875 C-12 30 -12 30 -15 28 C-14.67 26.68 -14.34 25.36 -14 24 C-11.03 24 -8.06 24 -5 24 C-3.91915479 20.36380344 -3.91915479 20.36380344 -4 18 C-4.886875 17.773125 -5.77375 17.54625 -6.6875 17.3125 C-10.58620077 15.76773177 -12.47227986 14.34551195 -15 11 C-15.5625 7.4375 -15.5625 7.4375 -15 4 C-13.24074426 1.61243864 -11.88201981 0.39538819 -9.1875 -0.8125 C-6.03279442 -1.08290334 -3.10656424 -0.53767458 0 0 Z " fill="#FFFFFF" transform="translate(408,21)"/>
<path d="M0 0 C0.33 0.99 0.66 1.98 1 3 C0.67 3.66 0.34 4.32 0 5 C-0.61488281 4.96519531 -1.22976563 4.93039063 -1.86328125 4.89453125 C-2.67152344 4.86746094 -3.47976563 4.84039063 -4.3125 4.8125 C-5.11300781 4.77769531 -5.91351563 4.74289063 -6.73828125 4.70703125 C-9.51627459 5.06687495 -10.29427215 5.83241353 -12 8 C-13.21977329 10.43954658 -13.20153813 12.15305849 -13.25 14.875 C-13.27578125 15.73867188 -13.3015625 16.60234375 -13.328125 17.4921875 C-12.93236444 20.51692891 -12.14705864 21.85294136 -10 24 C-6.1345378 24.35140565 -2.70432927 24.18538537 1 23 C1.33 24.32 1.66 25.64 2 27 C-1.7254336 29.7940752 -4.54293888 30.48584486 -9.078125 30.28125 C-13.30529611 29.66263959 -15.45184992 27.57777982 -18.3125 24.5625 C-20.97682844 18.93780663 -21.2991596 12.66933371 -19.19921875 6.73828125 C-17.14375378 2.95273379 -14.98616418 0.62422303 -10.8125 -0.6875 C-7.04020601 -1.10664378 -3.75106021 -0.57219562 0 0 Z " fill="#FFFFFF" transform="translate(387,21)"/>
<path d="M0 0 C2.625 -0.625 2.625 -0.625 6 0 C8.42504235 3.11323005 10.22831653 6.48176333 12 10 C12.36351562 9.278125 12.72703125 8.55625 13.1015625 7.8125 C14.60015678 5.04586441 16.0652822 2.48375934 18 0 C21.375 -0.625 21.375 -0.625 24 0 C22.92255499 4.09429104 21.28964861 7.10478514 18.9375 10.5625 C15.23713262 16.45967915 15.02141573 22.16838109 15 29 C13.35 29 11.7 29 10 29 C10.03222656 28.23558594 10.06445312 27.47117187 10.09765625 26.68359375 C9.98212788 16.01647424 5.67951915 9.5823845 0 1 C0 0.67 0 0.34 0 0 Z " fill="#FFFFFF" transform="translate(302,21)"/>
<path d="M0 0 C2.29296875 -0.28125 2.29296875 -0.28125 5 0 C6.80078125 1.96875 6.80078125 1.96875 8.3125 4.5 C8.82425781 5.3353125 9.33601562 6.170625 9.86328125 7.03125 C10.23839844 7.6809375 10.61351562 8.330625 11 9 C13.87192801 6.32114278 15.33787273 3.56170128 17 0 C18.98 0 20.96 0 23 0 C21.92255499 4.09429104 20.28964861 7.10478514 17.9375 10.5625 C14.23713262 16.45967915 14.02141573 22.16838109 14 29 C12.35 29 10.7 29 9 29 C9.020625 28.22398438 9.04125 27.44796875 9.0625 26.6484375 C8.89162844 17.69903979 6.39489802 12.14457346 1.71484375 4.80078125 C0 2 0 2 0 0 Z " fill="#FFFFFF" transform="translate(163,21)"/>
<path d="M0 0 C1.98 0 3.96 0 6 0 C6 8.25 6 16.5 6 25 C10.29 25 14.58 25 19 25 C19 26.32 19 27.64 19 29 C12.73 29 6.46 29 0 29 C0 19.43 0 9.86 0 0 Z " fill="#FFFFFF" transform="translate(143,21)"/>
<path d="M0 0 C8.25 0 16.5 0 25 0 C25 1.32 25 2.64 25 4 C21.7 4 18.4 4 15 4 C15 12.25 15 20.5 15 29 C13.35 29 11.7 29 10 29 C10 20.75 10 12.5 10 4 C6.7 4 3.4 4 0 4 C0 2.68 0 1.36 0 0 Z " fill="#FFFFFF" transform="translate(327,21)"/>
<path d="M0 0 C1.98 0 3.96 0 6 0 C6.08732726 3.89569135 6.14050185 7.79112982 6.1875 11.6875 C6.21263672 12.79029297 6.23777344 13.89308594 6.26367188 15.02929688 C6.27333984 16.09599609 6.28300781 17.16269531 6.29296875 18.26171875 C6.3086792 19.24100342 6.32438965 20.22028809 6.34057617 21.22924805 C5.93876019 24.49821548 4.93778845 26.35964217 3 29 C0.02122452 30.26068026 -2.80114283 30.39775632 -6 30 C-9.0625 27.6875 -9.0625 27.6875 -11 25 C-11 24.34 -11 23.68 -11 23 C-7.36699832 22.89619995 -4.66581454 23.26683709 -1 24 C-0.67 16.08 -0.34 8.16 0 0 Z " fill="#FFFFFF" transform="translate(85,21)"/>
<path d="M0 0 C1.65 0 3.3 0 5 0 C5 9.57 5 19.14 5 29 C5.66 29 6.32 29 7 29 C7 28.01 7 27.02 7 26 C8.65 26 10.3 26 12 26 C12.22223194 28.74086056 12.34781139 30.43963721 10.875 32.8125 C8.12844028 34.55198782 6.18153026 34.39769128 3 34 C1.33081055 32.91870117 1.33081055 32.91870117 0 31 C-0.34057617 27.8137207 -0.34057617 27.8137207 -0.29296875 23.92578125 C-0.28872391 23.2419487 -0.28447906 22.55811615 -0.28010559 21.8535614 C-0.26333353 19.67280439 -0.22568657 17.49297691 -0.1875 15.3125 C-0.17245114 13.83269565 -0.15876308 12.3528768 -0.14648438 10.87304688 C-0.11343569 7.24839664 -0.06166446 3.62428906 0 0 Z " fill="#A82912" transform="translate(35,40)"/>
<path d="M0 0 C1.65 0 3.3 0 5 0 C5.07418046 4.35990873 5.12861544 8.71948279 5.16479492 13.07983398 C5.17987768 14.56297199 5.20034689 16.04606544 5.22631836 17.52905273 C5.26272616 19.66140745 5.27973073 21.79317235 5.29296875 23.92578125 C5.31653442 25.85031128 5.31653442 25.85031128 5.34057617 27.8137207 C5 31 5 31 3.66918945 32.91870117 C1.05190178 34.61417684 -0.96792132 34.37900983 -4 34 C-5.875 32.8125 -5.875 32.8125 -7 31 C-7.1875 28.3125 -7.1875 28.3125 -7 26 C-5.35 26 -3.7 26 -2 26 C-2 26.99 -2 27.98 -2 29 C-1.34 29 -0.68 29 0 29 C0 19.43 0 9.86 0 0 Z " fill="#C54023" transform="translate(26,40)"/>
<path d="M0 0 C1.65 0 3.3 0 5 0 C5 8.25 5 16.5 5 25 C9.29 25 13.58 25 18 25 C18 26.32 18 27.64 18 29 C12.06 29 6.12 29 0 29 C0 19.43 0 9.86 0 0 Z " fill="#FFFFFF" transform="translate(283,21)"/>
<path d="M0 0 C1.65 0 3.3 0 5 0 C5 8.25 5 16.5 5 25 C9.29 25 13.58 25 18 25 C18 26.32 18 27.64 18 29 C12.06 29 6.12 29 0 29 C0 19.43 0 9.86 0 0 Z " fill="#FFFFFF" transform="translate(121,21)"/>
<path d="M0 0 C1.65 0 3.3 0 5 0 C5 6.27 5 12.54 5 19 C5.66 19 6.32 19 7 19 C7 18.01 7 17.02 7 16 C8.65 16 10.3 16 12 16 C11.25 21.75 11.25 21.75 9 24 C3.76713832 24.55668741 3.76713832 24.55668741 1.3269043 22.78588867 C-0.42051096 20.4340317 -0.34587067 19.02288705 -0.29296875 16.11328125 C-0.28330078 15.17548828 -0.27363281 14.23769531 -0.26367188 13.27148438 C-0.23853516 12.29501953 -0.21339844 11.31855469 -0.1875 10.3125 C-0.17396484 9.32443359 -0.16042969 8.33636719 -0.14648438 7.31835938 C-0.11112203 4.87835769 -0.06177033 2.43945281 0 0 Z " fill="#942913" transform="translate(44,40)"/>
<path d="M0 0 C1.65 0 3.3 0 5 0 C5.08703823 3.43734063 5.14040272 6.87439837 5.1875 10.3125 C5.22520508 11.77719727 5.22520508 11.77719727 5.26367188 13.27148438 C5.27817383 14.67817383 5.27817383 14.67817383 5.29296875 16.11328125 C5.31653442 17.40939331 5.31653442 17.40939331 5.34057617 18.73168945 C5 21 5 21 3.66918945 22.77807617 C1.05718922 24.69018107 -0.86866294 24.45665332 -4 24 C-5.875 22.25 -5.875 22.25 -7 20 C-7 18.68 -7 17.36 -7 16 C-5.35 16 -3.7 16 -2 16 C-2 16.99 -2 17.98 -2 19 C-1.34 19 -0.68 19 0 19 C0 12.73 0 6.46 0 0 Z " fill="#CE5134" transform="translate(17,40)"/>
<path d="M0 0 C1.65 0 3.3 0 5 0 C5 9.57 5 19.14 5 29 C3.35 29 1.7 29 0 29 C0 19.43 0 9.86 0 0 Z " fill="#FFFFFF" transform="translate(356,21)"/>
<path d="M0 0 C1.65 0 3.3 0 5 0 C5 0.99 5 1.98 5 3 C5.66 3 6.32 3 7 3 C7 3.66 7 4.32 7 5 C6.01 5 5.02 5 4 5 C4 5.66 4 6.32 4 7 C5.65 7 7.3 7 9 7 C9 7.33 9 7.66 9 8 C3.57142857 8.36190476 3.57142857 8.36190476 1.125 6.8125 C-0.34781139 4.43963721 -0.22223194 2.74086056 0 0 Z " fill="#A43420" transform="translate(19,66)"/>
</svg>
